<?xml version="1.0" encoding="UTF-8"?>
<svg version="1.1" xmlns="http://www.w3.org/2000/svg" width="512" height="512">
<path d="M0 0 C104.61 0 209.22 0 317 0 C315.61739717 6.22171274 314.12019199 12.00895016 312.04296875 17.98046875 C311.74821655 18.84101868 311.45346436 19.7015686 311.14978027 20.5881958 C310.50652691 22.46453821 309.86108992 24.34013313 309.2137146 26.21505737 C307.78578561 30.35107044 306.3687854 34.49080567 304.95088196 38.63026428 C304.18229201 40.87372688 303.41314391 43.11699833 302.64347839 45.36009216 C298.39833932 57.73622896 294.20410004 70.12954457 290.0116272 82.52359009 C288.68456574 86.44657664 287.35646072 90.36920934 286.02807617 94.29174805 C285.80785514 94.94203696 285.58763411 95.59232588 285.36073971 96.26232052 C284.91521793 97.57788455 284.46969276 98.89344744 284.0241642 100.20900917 C282.90972715 103.49981999 281.79543831 106.79068099 280.68115234 110.08154297 C280.46041329 110.73344888 280.23967424 111.38535479 280.01224613 112.05701542 C278.88992897 115.37157716 277.76768713 118.68616438 276.64556885 122.00079346 C274.0112811 129.78213551 271.37588963 137.56310201 268.73892212 145.34353638 C267.92418993 147.74807704 267.10986743 150.15275656 266.29598999 152.55758667 C258.27477482 176.25749817 258.27477482 176.25749817 254 188 C255.38517822 188.20906982 255.38517822 188.20906982 256.79833984 188.42236328 C268.75190261 190.57899966 277.80436604 198.61581618 286 207 C286.59296875 207.56074219 287.1859375 208.12148437 287.796875 208.69921875 C299.50460134 220.69019654 303.49737804 238.69695135 303.42675781 254.82885742 C303.12573136 265.11839514 300.62314108 274.908119 295.63671875 283.97265625 C294.11947165 288.80364549 296.47985972 293.45300602 298.375 297.875 C307.73166503 321.9311214 305.87303428 348.42848226 296 372 C284.59373796 396.67477094 263.99323156 413.17278063 239.4140625 423.5078125 C222.65314818 429.49654368 204.78452679 431.93431843 187.26193237 434.61547852 C166.41377921 437.78460724 166.41377921 437.78460724 146 443 C145.22769043 443.2376709 144.45538086 443.4753418 143.65966797 443.72021484 C116.01444799 452.42820746 90.05942317 466.1092594 64.13574219 478.90625 C41.18848742 490.2328154 17.84389291 501.47357401 -7 508 C-7.77311523 508.20737793 -8.54623047 508.41475586 -9.34277344 508.62841797 C-30.81016327 514.15471999 -55.78047485 514.79113869 -77 508 C-78.13566406 507.63777344 -79.27132812 507.27554687 -80.44140625 506.90234375 C-93.2299949 502.36247173 -104.76601483 495.89583978 -115 487 C-115.58652344 486.5565625 -116.17304687 486.113125 -116.77734375 485.65625 C-135.23142061 471.4140448 -145.43459056 445.81601996 -148.49609375 423.39453125 C-152.50161914 386.69487624 -144.29016029 353.11656164 -128.78515625 320.10546875 C-128.23230957 318.92750732 -127.67946289 317.7495459 -127.10986328 316.53588867 C-126.01026033 314.21099093 -124.89827912 311.8919003 -123.77294922 309.5793457 C-123.26908691 308.52191162 -122.76522461 307.46447754 -122.24609375 306.375 C-121.78904053 305.43398438 -121.3319873 304.49296875 -120.86108398 303.5234375 C-119.92070021 300.76760912 -119.9128301 299.65894232 -121 297 C-122.42712081 295.035693 -122.42712081 295.035693 -124.1875 293.0625 C-133.41623431 281.52184456 -137.59492847 267.30231579 -137.4375 252.6875 C-137.42920166 251.68348145 -137.42090332 250.67946289 -137.41235352 249.64501953 C-137.00468446 231.629239 -129.78983512 216.65520527 -117 204 C-116.40960938 203.37609375 -115.81921875 202.7521875 -115.2109375 202.109375 C-102.52546852 189.70332164 -84.87180716 185.49519501 -67.71582031 185.65014648 C-48.73408853 186.1562124 -32.98450894 194.52108863 -19.875 208.0625 C-7.79628771 222.3417874 -2.41681035 240.35278958 -3.77246094 258.88427734 C-5.75411807 277.31028672 -14.45238625 293.08988962 -28.5 305.11328125 C-34.68327888 309.77972453 -42.97869482 316 -51 316 C-53.64214794 329.87127667 -52.4493702 342.54296461 -44.8046875 354.5234375 C-41.71284956 358.7663493 -38.43496263 363.1246659 -34 366 C-28.24020483 366.08433082 -23.15218935 362.82397423 -18.1875 360.1875 C-16.80014648 359.45261353 -16.80014648 359.45261353 -15.38476562 358.70288086 C-1.69810692 351.29162572 10.41788404 342.34662062 21.51660156 331.45263672 C22.972984 330.02645576 24.44887932 328.62340731 25.9296875 327.22265625 C32.42315856 320.95402837 37.80451548 314.35064847 43 307 C39.66241314 303.63284705 39.66241314 303.63284705 36.2265625 300.3671875 C23.00914879 288.05242643 17.06135556 271.3008708 16.0390625 253.67578125 C15.84546807 235.45854539 22.61340765 218.3420157 34.9453125 204.96875 C41.47944614 198.70790712 47.93691274 194.34088436 56.23413086 190.85791016 C57.21038044 190.44403801 57.21038044 190.44403801 58.20635223 190.02180481 C59.8031455 189.34529293 61.40142642 188.67229427 63 188 C55.21297334 163.79245813 47.24031749 139.65425797 39.07847214 115.57061005 C37.94521504 112.22528941 36.81380551 108.87934505 35.68238354 105.5334034 C28.53711954 84.40318706 21.37532237 63.278494 14.15917969 42.17236328 C9.36636757 28.13784919 4.69027399 14.07082197 0 0 Z M43 30 C52.55681789 59.5361365 52.55681789 59.5361365 62.34765625 88.9921875 C62.97687021 90.86040629 63.60597122 92.72866313 64.23497009 94.59695435 C65.52806959 98.4361968 66.8226553 102.27493355 68.1184082 106.11328125 C69.74371672 110.92833305 71.36480054 115.7447955 72.98487282 120.56161118 C80.4599758 142.77955226 88.05652249 164.94473651 96 187 C97.98 187.33 99.96 187.66 102 188 C108.83730146 175.14628463 115.4771482 162.20434826 121.97680664 149.17675781 C123.4301258 146.26477551 124.88769873 143.35495125 126.34570312 140.4453125 C131.73679009 129.66648085 137.01615962 118.84094625 142.19439697 107.95826721 C146.0955308 99.7680992 150.14742991 91.66428344 154.27148438 83.58398438 C154.76326172 82.61138672 155.25503906 81.63878906 155.76171875 80.63671875 C156.19444092 79.78811279 156.62716309 78.93950684 157.07299805 78.06518555 C158.13650266 76.07318065 158.13650266 76.07318065 158 74 C158.66 74 159.32 74 160 74 C160.27223389 74.86592773 160.54446777 75.73185547 160.82495117 76.62402344 C161.96202834 79.89090544 163.29317697 82.90439069 164.80078125 86.015625 C165.35918701 87.1711084 165.91759277 88.3265918 166.49291992 89.51708984 C167.09927884 90.76147499 167.70580991 92.00577628 168.3125 93.25 C168.94195532 94.54761985 169.5712663 95.84530972 170.20043945 97.14306641 C174.82789734 106.67019853 179.55479515 116.14627413 184.3137207 125.60839844 C188.25021699 133.45143746 192.05835933 141.34874475 195.81689453 149.27832031 C200.00312445 158.07935214 204.36504831 166.78900648 208.76171875 175.48632812 C209.28507813 176.52466797 209.8084375 177.56300781 210.34765625 178.6328125 C210.81179932 179.54949707 211.27594238 180.46618164 211.75415039 181.41064453 C212.95412464 183.90465333 214.00498233 186.41825383 215 189 C217.76600479 188.59409013 219.58128024 188.29610956 222 187 C223.79326012 184.45506629 224.5974243 181.65978685 225.51000977 178.70288086 C225.80065811 177.8418576 226.09130646 176.98083435 226.39076233 176.09371948 C227.35145063 173.22565986 228.27105646 170.34607658 229.19140625 167.46484375 C229.86277354 165.43515858 230.53672706 163.40632723 231.21311951 161.37831116 C233.00005534 155.99824992 234.75293053 150.60768234 236.49859619 145.21411133 C238.22569393 139.8949951 239.98147538 134.58540141 241.73632812 129.27539062 C243.81074517 122.99273078 245.88239681 116.70922868 247.93984985 110.42098999 C252.92170605 95.20004778 258.03349679 80.02739772 263.24330139 64.88304138 C267.23448654 53.27715513 271.11831921 41.64504238 275 30 C198.44 30 121.88 30 43 30 Z M158 144 C154.36179961 151.2300449 150.72793456 158.46224504 147.09957218 165.69723129 C145.41461431 169.05671326 143.72817728 172.41543533 142.03833008 175.77246094 C140.40736344 179.01265166 138.78032155 182.25478521 137.15597343 185.49829865 C136.53580315 186.73494603 135.91422582 187.97088885 135.2912159 189.20610809 C134.41835963 190.93728745 133.55097924 192.67122444 132.68383789 194.40527344 C132.18864151 195.39122498 131.69344513 196.37717651 131.1832428 197.39300537 C130.16318975 199.64045013 129.336758 201.55885672 129 204 C130.40972128 206.05391013 130.40972128 206.05391013 132.5 208 C140.06475287 216.09375657 144.36984487 224.83817053 147.2734375 235.48046875 C147.7562795 237.9174445 147.7562795 237.9174445 149 239 C150.63472882 239.08700342 152.27314055 239.10701063 153.91015625 239.09765625 C154.89951172 239.09443359 155.88886719 239.09121094 156.90820312 239.08789062 C157.94912109 239.07951172 158.99003906 239.07113281 160.0625 239.0625 C161.10728516 239.05798828 162.15207031 239.05347656 163.22851562 239.04882812 C165.8190666 239.03699913 168.40950559 239.02051689 171 239 C171.29132813 238.03320312 171.58265625 237.06640625 171.8828125 236.0703125 C175.27968158 225.14094956 179.12936903 215.96322733 187.97265625 208.27734375 C189.48781709 204.91864121 188.20337077 202.92310801 187.01045227 199.55421448 C185.27791317 195.17471376 183.17515477 191.00456786 181.03515625 186.8125 C180.5605748 185.86995361 180.08599335 184.92740723 179.59703064 183.95629883 C178.09123635 180.96793888 176.57733415 177.98378619 175.0625 175 C173.55263437 172.01553356 172.04455051 169.03018595 170.53868103 166.04370117 C169.60524657 164.19357574 168.66933706 162.3446961 167.73048401 160.49731445 C164.98412202 155.06684935 162.41341557 149.58654444 160 144 C159.34 144 158.68 144 158 144 Z M-101.8125 230.125 C-106.58742401 236.62111755 -109.90240418 245.6688409 -109.3828125 253.84375 C-107.07313045 266.85338765 -101.77377992 276.28205584 -91 284 C-82.33261306 288.78300617 -72.78970209 290.7356457 -63.05078125 288.24609375 C-52.91588496 284.72031127 -43.93239545 278.64167626 -38.8984375 268.859375 C-34.41997707 259.12919479 -33.4931819 249.7232952 -36.96875 239.44140625 C-41.08043654 229.70729985 -48.42031343 221.62894772 -58.25 217.5625 C-74.97509142 211.46822649 -90.39185407 216.96590479 -101.8125 230.125 Z M54.6875 228.25 C47.86922848 236.37216408 45.34594233 245.77557267 46.18359375 256.30859375 C48.05219906 267.11568219 54.24451421 275.66911027 63 282 C71.82109742 287.76036576 81.76406251 288.96788468 92 287 C102.23370637 284.41431468 109.89600674 277.76514958 115.5 268.9375 C119.90747961 260.85712071 121.56538599 252.2971209 119.3125 243.234375 C116.01518785 233.39739374 111.1273723 225.28003195 102 220 C84.77078936 211.79310883 68.00599815 214.36736657 54.6875 228.25 Z M207.15625 229.203125 C200.31986352 238.78747075 198.74560306 248.31239772 200 260 C202.54791169 270.01470847 208.33904503 278.06365288 216.875 283.875 C225.71891089 288.8572422 235.10203633 290.48571525 245.046875 288.34375 C255.40844613 285.29313515 263.53634254 279.39948365 269 270 C273.95035714 260.28434579 274.79992493 249.68011988 271.5 239.25 C267.34552088 229.38674363 260.69481517 222.45755538 251 218 C234.89492361 211.4936481 218.38467856 215.78610443 207.15625 229.203125 Z M148 269 C147.29875 270.77375 146.5975 272.5475 145.875 274.375 C138.30165707 292.39870999 126.09763392 305.73812465 108.02734375 313.48828125 C98.81931537 317.13522466 90.058075 318.2683899 80.25 317.1875 C75.4497512 317.06189747 75.4497512 317.06189747 71.37548828 319.33154297 C67.92928221 323.14902837 65.22885618 327.47026163 62.47363281 331.79736328 C60.14227303 335.28204319 57.44856732 338.41419406 54.6875 341.5625 C54.18009277 342.14555908 53.67268555 342.72861816 53.14990234 343.3293457 C47.18341337 350.1365045 40.92818983 356.03019574 33.8515625 361.6953125 C32.06897278 363.1360357 30.30912234 364.60591536 28.5859375 366.1171875 C14.29420628 378.50335456 -2.71600706 387.54025731 -20 395 C-20.6609668 395.28907227 -21.32193359 395.57814453 -22.00292969 395.87597656 C-32.92285865 400.59613133 -32.92285865 400.59613133 -38 399 C-56.47671089 390.79758917 -69.96728322 376.11809785 -77.9375 357.765625 C-81.8173214 347.66667811 -83.16886554 337.8217832 -83.0625 327.0625 C-83.05798828 326.18787109 -83.05347656 325.31324219 -83.04882812 324.41210938 C-83.03714834 322.27470953 -83.01921689 320.13734537 -83 318 C-86.3 317.34 -89.6 316.68 -93 316 C-113.99551326 359.97420555 -113.99551326 359.97420555 -119 408 C-118.88011719 409.85431641 -118.88011719 409.85431641 -118.7578125 411.74609375 C-117.50122399 427.01283985 -113.3816238 441.67880075 -104 454 C-103.50242187 454.68964844 -103.00484375 455.37929688 -102.4921875 456.08984375 C-91.24147782 470.3652417 -72.53055126 479.0111548 -54.85546875 481.56640625 C-12.85508959 486.28985315 26.81238672 462.84431162 63.14941406 444.940979 C103.79256929 424.92265689 142.73552781 410.40344314 187.69561768 403.32043457 C221.73735075 398.26331388 221.73735075 398.26331388 251 381 C251.72316406 380.36835938 252.44632812 379.73671875 253.19140625 379.0859375 C263.94557863 369.07782446 272.22542598 354.86914564 273.12475586 339.92724609 C273.46831538 329.54340041 273.38820078 319.922588 270 310 C268.98421875 310.40992188 267.9684375 310.81984375 266.921875 311.2421875 C247.57520603 318.88455838 229.52754223 320.47690591 209.6875 312.75 C203.93245553 310.17415348 198.9669754 306.85935719 194 303 C193.36320312 302.52820313 192.72640625 302.05640625 192.0703125 301.5703125 C181.92387614 293.58844923 175.99283272 280.97849816 172 269 C164.08 269 156.16 269 148 269 Z " fill="#000000" transform="translate(172,0)"/>
</svg>
