<?xml version="1.0" encoding="UTF-8"?>
<svg version="1.1" xmlns="http://www.w3.org/2000/svg" width="512" height="512">
<path d="M0 0 C15.89951714 14.24659704 20.707759 35.48077933 22 56 C23.21428894 78.88722031 20.00733023 101.70848419 15 124 C15.66306152 124.23074219 16.32612305 124.46148437 17.00927734 124.69921875 C41.43263942 133.23832479 65.10983384 142.46560348 86 158 C86.969375 158.72058594 87.93875 159.44117188 88.9375 160.18359375 C100.96476253 169.5548358 112.25279476 183.1042375 114.8515625 198.66796875 C115.79065826 213.42165747 111.16626816 226.46757568 101.56982422 237.66943359 C93.13777736 247.03808386 83.71541114 254.4241793 73 261 C72.31486328 261.4223291 71.62972656 261.8446582 70.92382812 262.27978516 C53.81261598 272.65734462 35.07337421 280.08044268 16 286 C16.21934204 287.20946289 16.21934204 287.20946289 16.44311523 288.44335938 C16.99089784 291.4697442 17.53673156 294.49647259 18.08129883 297.5234375 C18.43097781 299.46380835 18.78285095 301.40378338 19.13476562 303.34375 C24.94103719 335.6569135 26.97473234 373.43477794 8 402 C1.45167343 410.49083389 -8.16061572 416.63212314 -18.76953125 418.75390625 C-50.23633536 422.22572527 -79.06224701 405.38726948 -102.84082031 386.54101562 C-110.11732963 380.62456379 -117.07998338 374.32642603 -124 368 C-128.59358067 371.23788208 -132.79425279 374.696197 -136.875 378.5625 C-158.21093213 398.13269982 -188.36535902 416.95623166 -218 419 C-218.98226562 419.07734375 -218.98226562 419.07734375 -219.984375 419.15625 C-232.42588127 419.70113349 -243.6610526 416.1157895 -253.1796875 408.18359375 C-268.45928311 393.91302804 -272.54119378 371.9292108 -273.28515625 351.8515625 C-273.74906888 329.80989284 -270.41759428 308.52736297 -266 287 C-266.65669678 286.79020508 -267.31339355 286.58041016 -267.98999023 286.36425781 C-294.48220296 277.80046934 -319.6101421 267.15227737 -341 249 C-341.75796875 248.38769531 -342.5159375 247.77539062 -343.296875 247.14453125 C-355.6175551 236.84189358 -364.56494249 223.01743674 -366.21875 206.86328125 C-366.83976404 192.45058041 -360.19523282 180.23957265 -350.75 169.8125 C-332.52320499 150.49439152 -308.37654478 138.96716728 -283.75 130 C-282.69031006 129.61376465 -281.63062012 129.2275293 -280.53881836 128.82958984 C-275.34211884 126.99282178 -270.4975013 125.49694927 -265 125 C-265.25394531 124.00484375 -265.50789063 123.0096875 -265.76953125 121.984375 C-268.56596886 110.74272309 -270.5254565 99.48742075 -272 88 C-272.1340625 86.95714844 -272.268125 85.91429687 -272.40625 84.83984375 C-275.06456432 59.17972632 -274.38625146 28.26798888 -258 7 C-251.1307394 -1.34328944 -241.86874397 -7.05033896 -230.93432617 -8.22119141 C-212.71965628 -9.18147125 -197.23146369 -4.97011219 -181 3 C-180.37915527 3.29890137 -179.75831055 3.59780273 -179.11865234 3.90576172 C-159.12679677 13.62570412 -142.15081498 27.92026874 -126 43 C-121.37448055 39.7396052 -117.12855321 36.24747049 -113 32.375 C-87.13291416 8.61586728 -33.96001117 -27.11044959 0 0 Z M-240.25 19.875 C-250.61006092 32.60838164 -251.41546696 49.40323156 -251.375 65.125 C-251.37545319 65.81443695 -251.37590637 66.5038739 -251.37637329 67.21420288 C-251.34258892 84.88088705 -248.92972807 102.02121047 -244 119 C-237.18690802 117.96878261 -230.38028609 116.90642927 -223.58203125 115.78125 C-220.99220474 115.35406212 -218.40236056 114.92698136 -215.8125 114.5 C-215.13834045 114.38817383 -214.46418091 114.27634766 -213.76959229 114.16113281 C-204.97040005 112.70679836 -196.18547112 111.33410156 -187.26489258 110.89648438 C-183.82748217 110.63544827 -182.11233829 110.09007305 -179.3984375 107.9140625 C-176.56842693 104.47564575 -173.87637605 100.97047124 -171.25 97.375 C-164.38824857 88.11331531 -157.10811311 79.26406719 -149.625 70.5 C-149.11259766 69.89978027 -148.60019531 69.29956055 -148.07226562 68.68115234 C-144.22923185 64.20654429 -144.22923185 64.20654429 -142.33740234 62.50195312 C-140.6674942 60.9617662 -140.6674942 60.9617662 -141 58 C-142.21314949 56.52916833 -142.21314949 56.52916833 -144 55.125 C-144.73347656 54.51398438 -145.46695313 53.90296875 -146.22265625 53.2734375 C-147.13917969 52.52320313 -148.05570312 51.77296875 -149 51 C-150.16600254 50.01377459 -151.33131596 49.0267341 -152.49609375 48.0390625 C-170.81182706 32.66062669 -217.29039796 -3.34065708 -240.25 19.875 Z M-94 45 C-95.23697189 46.04322119 -96.47534087 47.08478727 -97.71484375 48.125 C-98.99788277 49.20775659 -100.28043946 50.291085 -101.5625 51.375 C-102.17109863 51.88724121 -102.77969727 52.39948242 -103.40673828 52.92724609 C-106.02661172 55.16531773 -108.07660828 57.11491242 -110 60 C-109.00033203 61.05574219 -109.00033203 61.05574219 -107.98046875 62.1328125 C-101.42385847 69.12829363 -95.38546728 76.39189411 -89.54785156 83.99316406 C-87.8218434 86.23098537 -86.08001423 88.45592179 -84.3359375 90.6796875 C-83.07805196 92.28640116 -81.82023865 93.89317136 -80.5625 95.5 C-79.67534302 96.63042725 -79.67534302 96.63042725 -78.77026367 97.78369141 C-78.20799072 98.50476074 -77.64571777 99.22583008 -77.06640625 99.96875 C-76.52330811 100.65525635 -75.98020996 101.3417627 -75.4206543 102.04907227 C-74 104 -74 104 -72.3046875 107.43359375 C-68.54257629 111.62292776 -63.96742775 111.19996707 -58.5625 111.5625 C-56.22065613 111.77229676 -53.87951545 111.99006079 -51.5390625 112.21484375 C-49.69876465 112.39055908 -49.69876465 112.39055908 -47.82128906 112.56982422 C-40.0844399 113.4407882 -32.44278474 114.89859198 -24.78540039 116.28735352 C-18.52772371 117.41532599 -12.33043963 118.3919535 -6 119 C-5.18204831 114.68851581 -4.37163303 110.37564715 -3.5625 106.0625 C-3.33240234 104.85013672 -3.10230469 103.63777344 -2.86523438 102.38867188 C-0.69180095 90.7655279 0.23959193 79.77465552 0.25 67.9375 C0.25067474 67.24780121 0.25134949 66.55810242 0.25204468 65.84750366 C0.22584713 48.99415646 -0.7348013 30.37325977 -13.203125 17.55859375 C-18.73961951 12.75628655 -24.22568278 12.39807367 -31.3515625 12.59375 C-54.28388645 15.14724217 -77.01271074 30.25720654 -94 45 Z M-126 75 C-135.66156845 84.7514435 -143.787898 96.05053067 -152 107 C-134.51 107 -117.02 107 -99 107 C-102.81678025 101.27482963 -106.38616265 96.09447999 -110.875 91 C-111.39167236 90.40622559 -111.90834473 89.81245117 -112.44067383 89.20068359 C-113.95560399 87.46281033 -115.47757453 85.73130571 -117 84 C-117.83144531 83.04351562 -118.66289062 82.08703125 -119.51953125 81.1015625 C-122.21052658 78.00554394 -122.21052658 78.00554394 -125 75 C-125.33 75 -125.66 75 -126 75 Z M-158.62036133 128.84716797 C-160.16532935 128.94639337 -161.71268665 129.01493263 -163.26049805 129.04736328 C-167.10333688 129.25349257 -168.72290946 129.71625929 -171.44140625 132.5 C-172.17633626 133.64929639 -172.88136563 134.81802696 -173.5625 136 C-173.96686279 136.65299072 -174.37122559 137.30598145 -174.7878418 137.97875977 C-175.70237478 139.4667132 -176.60365087 140.96286606 -177.49414062 142.46533203 C-179.13885296 145.2337178 -180.82524598 147.97411888 -182.515625 150.71484375 C-190.66072887 164.01035664 -198.39268915 177.52427322 -205.60253906 191.35107422 C-206.55208559 193.15096588 -207.53467096 194.93373207 -208.54589844 196.69970703 C-211.38597133 201.60024993 -211.38597133 201.60024993 -211.578125 207.0703125 C-211.05734375 208.03710938 -210.5365625 209.00390625 -210 210 C-209.36767243 211.37142069 -208.73768314 212.74392069 -208.109375 214.1171875 C-199.58927529 231.49103859 -189.78229339 248.11718376 -179.5 264.5 C-179.03223145 265.24644775 -178.56446289 265.99289551 -178.08251953 266.76196289 C-176.74818219 268.85997306 -175.37574171 270.92899098 -174 273 C-173.54270508 273.74894531 -173.08541016 274.49789062 -172.61425781 275.26953125 C-170.07221679 279.14541235 -168.89565383 280.75813567 -164.296875 282 C-162.7818185 282.0415084 -161.26516226 282.03744962 -159.75 282 C-158.8844751 282.01015137 -158.0189502 282.02030273 -157.12719727 282.03076172 C-155.04010712 282.04768081 -152.95280499 282.04422392 -150.86572266 282.02636719 C-147.12655557 282.00086321 -143.390287 282.0189782 -139.65127563 282.0491333 C-124.40735238 282.1700159 -109.17258887 282.28023431 -93.94140625 281.5546875 C-92.68214577 281.49657394 -92.68214577 281.49657394 -91.39744568 281.43728638 C-90.61603714 281.39594574 -89.8346286 281.3546051 -89.02954102 281.31201172 C-88.00401878 281.25821854 -88.00401878 281.25821854 -86.95777893 281.20333862 C-82.62059505 280.78984335 -82.62059505 280.78984335 -79.40698242 278.09594727 C-78.63898315 276.84382446 -78.63898315 276.84382446 -77.85546875 275.56640625 C-77.26870361 274.62079834 -76.68193848 273.67519043 -76.07739258 272.70092773 C-75.14189575 271.14740601 -75.14189575 271.14740601 -74.1875 269.5625 C-73.53096436 268.49008057 -72.87442871 267.41766113 -72.19799805 266.31274414 C-70.11258329 262.88640397 -68.05029416 259.44741238 -66 256 C-65.3493457 254.90655273 -64.69869141 253.81310547 -64.02832031 252.68652344 C-59.58692091 245.17914026 -55.25390125 237.61509374 -51 230 C-50.09000244 228.37312256 -50.09000244 228.37312256 -49.16162109 226.71337891 C-47.41846947 223.57061649 -45.70369518 220.41429563 -44 217.25 C-43.47704346 216.30374756 -42.95408691 215.35749512 -42.4152832 214.38256836 C-41.71471802 213.0562439 -41.71471802 213.0562439 -41 211.703125 C-40.5875 210.93645508 -40.175 210.16978516 -39.75 209.37988281 C-38.40098396 205.09921602 -39.60859304 201.87673512 -41.3918457 197.88232422 C-41.98054443 196.7842041 -42.56924316 195.68608398 -43.17578125 194.5546875 C-43.65728386 193.65001488 -43.65728386 193.65001488 -44.14851379 192.72706604 C-45.19370606 190.77111597 -46.25214144 188.82276456 -47.3125 186.875 C-48.04611636 185.51573615 -48.77967711 184.15644229 -49.51318359 182.79711914 C-54.89561189 172.86315046 -60.42880216 163.03480544 -66.44775391 153.46972656 C-67.56080469 151.6987889 -68.66346038 149.92130144 -69.75927734 148.13964844 C-71.58549282 145.18080262 -73.44399626 142.24478536 -75.3125 139.3125 C-76.15675537 137.93759399 -76.15675537 137.93759399 -77.01806641 136.53491211 C-80.16982139 131.53804724 -80.16982139 131.53804724 -85.2734375 128.953125 C-87.11808594 128.97632813 -87.11808594 128.97632813 -89 129 C-90.6007451 128.90216246 -92.20099384 128.79600956 -93.80078125 128.68359375 C-95.63775977 128.59591061 -97.47503093 128.51421907 -99.3125 128.4375 C-100.31087891 128.3957666 -101.30925781 128.3540332 -102.33789062 128.31103516 C-121.07656407 127.59947673 -139.90169621 127.63155242 -158.62036133 128.84716797 Z M-54 133 C-50.57198962 139.45190572 -46.97689182 145.78006659 -43.25 152.0625 C-37.98488807 160.94207287 -32.97258915 169.95411974 -28 179 C-25.17932633 176.57579441 -24.11632058 174.2406531 -22.84375 170.7734375 C-22.26947266 169.22462891 -22.26947266 169.22462891 -21.68359375 167.64453125 C-21.09771484 166.02611328 -21.09771484 166.02611328 -20.5 164.375 C-20.10941406 163.31925781 -19.71882813 162.26351562 -19.31640625 161.17578125 C-17.57268142 156.43778145 -15.86566227 151.6866287 -14.21875 146.9140625 C-13.86200195 145.88079834 -13.86200195 145.88079834 -13.49804688 144.82666016 C-12.86847403 142.8331659 -12.86847403 142.8331659 -13 140 C-22.23185277 137.85026596 -31.46274256 135.82252094 -40.8125 134.25 C-41.55806152 134.12262451 -42.30362305 133.99524902 -43.07177734 133.86401367 C-46.74887742 133.26405691 -50.2728654 132.8535507 -54 133 Z M-207.70703125 133.92578125 C-208.67246101 134.08725899 -208.67246101 134.08725899 -209.65739441 134.2519989 C-211.01712244 134.48113256 -212.37619318 134.71419695 -213.73461914 134.95092773 C-215.79362922 135.30921629 -217.85447349 135.65466194 -219.91601562 135.99804688 C-226.05968071 137.04098493 -232.02988144 138.20805821 -238 140 C-235.80485785 149.00724727 -232.65122448 157.56076689 -229.3125 166.1875 C-228.79574045 167.53431979 -228.27946128 168.881324 -227.76367188 170.22851562 C-226.51463118 173.48781638 -225.25915807 176.74459234 -224 180 C-221.74063882 177.13011291 -219.95314456 174.22086638 -218.25 170.9921875 C-217.46822388 169.52362305 -217.46822388 169.52362305 -216.6706543 168.02539062 C-216.11933838 166.98576172 -215.56802246 165.94613281 -215 164.875 C-209.36358526 154.34155571 -203.36717328 144.10581411 -197 134 C-200.77177353 132.66895714 -203.81357506 133.26568152 -207.70703125 133.92578125 Z M-331.77734375 181.7421875 C-338.08207587 188.14664298 -343.797733 194.92716921 -344.5625 204.1875 C-344.07819168 215.17757342 -336.1934415 224.3090521 -328.57568359 231.58154297 C-323.75655539 235.91980372 -318.46968704 239.53793509 -313 243 C-312.40654785 243.37721191 -311.8130957 243.75442383 -311.20166016 244.14306641 C-302.80476773 249.37722767 -293.98360948 253.47071556 -284.875 257.3125 C-283.42794678 257.92544922 -283.42794678 257.92544922 -281.95166016 258.55078125 C-274.43745742 261.63093312 -266.8337533 263.8965859 -259 266 C-258.64772339 264.92576782 -258.64772339 264.92576782 -258.28833008 263.82983398 C-257.14243472 260.36139299 -255.98077445 256.89844834 -254.8125 253.4375 C-254.59767975 252.79784302 -254.3828595 252.15818604 -254.16152954 251.49914551 C-251.52288032 243.68539776 -248.67357479 236.03241405 -245.3359375 228.48828125 C-244.88008522 227.44932961 -244.88008522 227.44932961 -244.4150238 226.38938904 C-242.93249137 223.02208899 -241.41822971 219.67500097 -239.8527832 216.34545898 C-236.33399934 209.03354083 -236.33399934 209.03354083 -236.8828125 201.21484375 C-237.54991281 199.79114804 -238.25699292 198.38559474 -239 197 C-239.66865674 195.43720347 -240.32852549 193.87062354 -240.98046875 192.30078125 C-241.71444861 190.63727094 -242.45019686 188.97454003 -243.1875 187.3125 C-249.21955032 173.4872894 -254.29040257 159.32448194 -259 145 C-282.37922937 145 -315.13088824 166.20549569 -331.77734375 181.7421875 Z M8 146 C7.72438232 146.80816162 7.44876465 147.61632324 7.16479492 148.44897461 C5.85012417 152.28241468 4.52279425 156.11120272 3.1875 159.9375 C2.94511597 160.63351318 2.70273193 161.32952637 2.45300293 162.04663086 C-1.38223353 173.00606949 -5.67078067 183.60302525 -10.73364258 194.06616211 C-13.28603515 199.51716793 -14.88520239 203.02047489 -13 209 C-11.31391376 213.28827161 -9.45165455 217.48537935 -7.5625 221.6875 C-1.28714542 235.87678983 3.97745283 250.32337557 9 265 C37.41914694 256.84664474 71.91672668 243.59655796 89.078125 217.88671875 C92.254699 212.04568197 94.52108033 206.6503047 93 200 C88.37171294 185.90790209 76.02565678 176.64982879 64 169 C63.40509766 168.62133789 62.81019531 168.24267578 62.19726562 167.85253906 C47.60980309 158.7610016 25.53170681 146 8 146 Z M-224 231 C-227.02671942 238.65634354 -230.02605176 246.32300377 -233 254 C-233.3079248 254.79164551 -233.61584961 255.58329102 -233.93310547 256.39892578 C-234.67645108 258.3235882 -235.40167703 260.25522362 -236.125 262.1875 C-236.51945313 263.23292969 -236.91390625 264.27835937 -237.3203125 265.35546875 C-238.03979596 268.1548383 -237.79693842 269.30468395 -237 272 C-233.09090675 272.70081038 -229.18056844 273.39419036 -225.26904297 274.08129883 C-223.29979246 274.42871558 -221.33152132 274.78166929 -219.36328125 275.13476562 C-211.58235141 276.49741578 -203.88576018 277.51428289 -196 278 C-200.64815235 270.01260981 -200.64815235 270.01260981 -205.33984375 262.05078125 C-211.41360119 251.8010126 -217.26074259 241.44056401 -223 231 C-223.33 231 -223.66 231 -224 231 Z M-28 231 C-28.48859497 231.92558716 -28.48859497 231.92558716 -28.98706055 232.86987305 C-35.61735536 245.38451113 -42.41688852 257.68288916 -50.1237793 269.57299805 C-50.6475415 270.39195557 -51.17130371 271.21091309 -51.7109375 272.0546875 C-52.17806152 272.77124512 -52.64518555 273.48780273 -53.12646484 274.22607422 C-53.41473145 274.81146973 -53.70299805 275.39686523 -54 276 C-53.67 276.66 -53.34 277.32 -53 278 C-47.96338016 277.18947439 -42.9280671 276.37139253 -37.89379883 275.54638672 C-36.18222052 275.2669784 -34.47030759 274.98961171 -32.75805664 274.71435547 C-30.29221531 274.31758634 -27.82768393 273.91340959 -25.36328125 273.5078125 C-24.60163162 273.3868924 -23.83998199 273.26597229 -23.05525208 273.14138794 C-19.1407326 272.48944687 -15.61412653 271.65556358 -12 270 C-13.49205045 261.77138644 -16.44968226 254.29747053 -19.5625 246.5625 C-20.07547003 245.27172275 -20.58784425 243.98070856 -21.09960938 242.68945312 C-23.38571044 236.77255023 -23.38571044 236.77255023 -26 231 C-26.66 231 -27.32 231 -28 231 Z M-244 292 C-246.66377196 298.08539586 -247.48540598 304.4869688 -248.5625 311 C-248.67394348 311.66862061 -248.78538696 312.33724121 -248.90020752 313.02612305 C-252.75629735 336.42136616 -256.52232221 367.24836589 -242 388 C-237.37753791 393.02645776 -232.88724543 396.57304839 -225.94140625 397.3359375 C-196.67281288 397.67430274 -170.81451493 378.81137105 -149.4375 360.6875 C-148.84114746 360.1836377 -148.24479492 359.67977539 -147.63037109 359.16064453 C-144.7145145 356.64923193 -142.14201927 354.20921748 -140 351 C-140.61746094 350.33355469 -141.23492187 349.66710937 -141.87109375 348.98046875 C-147.82455844 342.50143183 -153.49062147 335.86443603 -159 329 C-159.97080149 327.80944496 -160.94218624 326.61936535 -161.9140625 325.4296875 C-162.94303003 324.16171932 -163.97167838 322.89349206 -165 321.625 C-165.46196777 321.06135742 -165.92393555 320.49771484 -166.39990234 319.91699219 C-166.86605957 319.33852539 -167.3322168 318.76005859 -167.8125 318.1640625 C-168.32047119 317.5455542 -168.82844238 316.9270459 -169.35180664 316.28979492 C-171 314 -171 314 -172.70874023 310.7355957 C-176.16607017 304.31868976 -176.16607017 304.31868976 -181.93341064 300.1484375 C-187.53017045 298.59709344 -193.29198267 298.31302159 -199.0625 297.9375 C-200.85737104 297.77649455 -202.65166217 297.60889283 -204.4453125 297.43481445 C-207.98961066 297.09301315 -211.53476822 296.77436796 -215.08251953 296.47070312 C-221.61532241 295.8813058 -228.04352667 294.84273079 -234.5 293.6875 C-235.98318726 293.42924438 -235.98318726 293.42924438 -237.49633789 293.16577148 C-239.66565948 292.78526909 -241.83312163 292.39417808 -244 292 Z M-12.7578125 291.953125 C-26.9666278 294.8592402 -41.09305995 297.05093758 -55.49853516 298.65527344 C-57.44252197 298.87812012 -57.44252197 298.87812012 -59.42578125 299.10546875 C-60.57473877 299.23074951 -61.72369629 299.35603027 -62.9074707 299.48510742 C-67.64528857 300.27393334 -70.2224201 301.06298355 -73.32421875 304.80078125 C-74.12310516 305.96378939 -74.91028161 307.13490117 -75.6875 308.3125 C-76.56305914 309.58734444 -77.44071686 310.86074974 -78.3203125 312.1328125 C-78.76407227 312.77895508 -79.20783203 313.42509766 -79.66503906 314.09082031 C-88.51641715 326.74952124 -98.56873151 338.63164356 -109 350 C-101.65016822 368.48203313 -69.10393939 384.34490001 -52 392 C-44.06622432 395.26795998 -37.18843404 397.14575911 -28.5625 397.25 C-27.28503906 397.27578125 -26.00757813 397.3015625 -24.69140625 397.328125 C-17.45227867 396.68464699 -13.40619705 393.05068868 -8.890625 387.69921875 C6.76552081 365.34715934 2.30240423 330.86963733 -1.83203125 305.765625 C-2.77673502 300.64037447 -4.21391526 295.89254159 -6 291 C-8.37089847 291 -10.43428533 291.46454683 -12.7578125 291.953125 Z M-152 303 C-147.42359031 309.10187959 -142.82989853 315.10480047 -138 321 C-137.26644287 321.8971875 -137.26644287 321.8971875 -136.51806641 322.8125 C-134.91838915 324.75899474 -133.30489195 326.6932101 -131.6875 328.625 C-131.17171387 329.2535791 -130.65592773 329.8821582 -130.12451172 330.52978516 C-128.81532989 332.07785937 -127.41357984 333.54663051 -126 335 C-125.01 335 -124.02 335 -123 335 C-120.96672377 332.95710167 -120.96672377 332.95710167 -118.9375 330.25 C-118.14601563 329.24710937 -117.35453125 328.24421875 -116.5390625 327.2109375 C-116.12430664 326.68209961 -115.70955078 326.15326172 -115.28222656 325.60839844 C-112.43353433 322.03505792 -109.42462238 318.5916806 -106.45703125 315.1171875 C-103.40794191 311.24886748 -100.73219245 307.09828867 -98 303 C-115.82 303 -133.64 303 -152 303 Z " fill="#00D8FF" transform="translate(381,51)"/>
<path d="M0 0 C9.23008999 8.80408584 14.01019375 19.65702911 14.34375 32.4375 C14.22524843 43.1421421 10.75816442 52.64694446 4.03125 60.9375 C3.52980469 61.56269531 3.02835937 62.18789063 2.51171875 62.83203125 C-4.64958979 70.82969699 -15.33248998 75.28413016 -25.890625 76.1875 C-38.55289645 76.67218025 -49.34349926 73.23864217 -58.96875 64.9375 C-68.07120196 56.36943857 -72.80549725 45.55404067 -73.28125 33.125 C-72.97238125 20.69303297 -68.33097872 9.89774743 -59.984375 0.7890625 C-42.97538229 -14.83547731 -17.46680153 -14.68223897 0 0 Z " fill="#00D8FF" transform="translate(284.96875,223.0625)"/>
</svg>
