<?xml version="1.0" encoding="UTF-8"?>
<svg version="1.1" xmlns="http://www.w3.org/2000/svg" width="48" height="48">
<path d="M0 0 C8.80289512 0.26838095 16.16450695 0.49727206 22.81640625 6.69140625 C25.98372845 10.32905007 27.42033747 13.34247141 27.6875 18.1875 C27.43195435 21.57217601 26.95078999 23.08787501 25.25 26.125 C20.39045333 28.92858462 15.49457219 28.77102564 10 28 C9.34 27.34 8.68 26.68 8 26 C10.68092691 23.31907309 12.39167363 23.61329743 16.125 23.375 C17.22070312 23.30023438 18.31640625 23.22546875 19.4453125 23.1484375 C20.28835937 23.09945312 21.13140625 23.05046875 22 23 C22.42651853 15.95743229 22.42651853 15.95743229 19 10 C12.96213872 5.24679006 7.48052834 5.55780128 0 6 C0 4.02 0 2.04 0 0 Z " fill="#7A54C3" transform="translate(18,16)"/>
<path d="M0 0 C3.7166518 0.80796778 5.28392892 2.57342352 7.46484375 5.58984375 C8.87134425 8.20938557 9.37140078 10.59027847 9.515625 13.546875 C7.765625 13.421875 7.765625 13.421875 5.515625 12.546875 C3.328125 9.546875 3.328125 9.546875 1.515625 6.546875 C0.41034058 5.22719322 0.41034058 5.22719322 -2.359375 5.296875 C-5.43296363 5.27016768 -5.43296363 5.27016768 -7.296875 6.859375 C-9.60344662 10.13713467 -9.61988857 13.11012384 -9.609375 16.984375 C-9.61195312 17.93183594 -9.61453125 18.87929688 -9.6171875 19.85546875 C-9.49910975 22.24827959 -9.16550135 24.26023653 -8.484375 26.546875 C-7.164375 26.546875 -5.844375 26.546875 -4.484375 26.546875 C-4.484375 28.526875 -4.484375 30.506875 -4.484375 32.546875 C-6.464375 32.546875 -8.444375 32.546875 -10.484375 32.546875 C-14.85526401 25.1709998 -15.53116012 18.00406962 -14.484375 9.546875 C-13.46273531 6.83579212 -12.52234852 5.70130414 -10.484375 3.546875 C-10.04351563 3.01707031 -9.60265625 2.48726563 -9.1484375 1.94140625 C-6.33274523 -0.41822319 -3.54419604 -0.10363146 0 0 Z " fill="#7B55C2" transform="translate(25.484375,3.453125)"/>
<path d="M0 0 C0.99 0.33 1.98 0.66 3 1 C2.125 5.75 2.125 5.75 1 8 C0.9310528 9.37342831 0.91532292 10.75002102 0.9375 12.125 C0.958125 13.40375 0.97875 14.6825 1 16 C8.48759598 16.51272483 8.48759598 16.51272483 15.5 14.25 C19.44761891 10.69714298 21.26045381 8.32473254 22 3 C23.98 3 25.96 3 28 3 C28.3125 5.6875 28.3125 5.6875 28 9 C25.875 11.5625 25.875 11.5625 23 14 C22.49597656 14.44601563 21.99195312 14.89203125 21.47265625 15.3515625 C15.58516106 20.4750316 11.61878133 21.54320128 3.86328125 21.36328125 C1 21 1 21 -2.25 19.125 C-4.72759517 14.70072292 -4.89390499 10.95998609 -4 6 C-2.89782954 3.60171493 -1.7195378 2.04195114 0 0 Z " fill="#7B55C2" transform="translate(7,23)"/>
</svg>
