<?xml version="1.0" encoding="UTF-8"?>
<svg version="1.1" xmlns="http://www.w3.org/2000/svg" width="512" height="512">
<path d="M0 0 C1.45108658 0.00273422 1.45108658 0.00273422 2.93148804 0.00552368 C17.26440977 0.05095174 31.21023917 0.55983928 45.3125 3.3125 C46.65803955 3.55395752 46.65803955 3.55395752 48.03076172 3.80029297 C107.84088904 14.62287989 165.35495829 48.68064457 202.3125 97.3125 C202.72918945 97.85277832 203.14587891 98.39305664 203.57519531 98.94970703 C211.2584873 108.9447116 218.00092968 119.40459036 224.3125 130.3125 C224.70679199 130.98974121 225.10108398 131.66698242 225.50732422 132.36474609 C238.68961173 155.2833756 247.29510918 180.85822563 252.625 206.6875 C252.77243652 207.39817627 252.91987305 208.10885254 253.07177734 208.84106445 C256.06629595 224.53156964 256.72086894 240.25618826 256.6875 256.1875 C256.68668427 257.6625148 256.68668427 257.6625148 256.68585205 259.16732788 C256.64445706 275.51553423 255.67396843 291.2649418 252.3125 307.3125 C251.99104004 308.86155029 251.99104004 308.86155029 251.66308594 310.44189453 C248.49394586 325.20123033 243.83216198 339.2789645 238.3125 353.3125 C237.84328125 354.53710938 237.3740625 355.76171875 236.890625 357.0234375 C230.14487237 373.72909547 220.85030987 389.72109465 210.3125 404.3125 C209.83232422 404.98055664 209.35214844 405.64861328 208.85742188 406.33691406 C201.30337808 416.75146103 193.06179577 426.28947203 184.08203125 435.49609375 C182.43791354 437.18376425 180.81124897 438.8865178 179.1875 440.59375 C172.61260237 447.42748481 165.55622295 453.35110208 157.98242188 459.04833984 C156.43745229 460.21790893 154.91303065 461.41448857 153.390625 462.61328125 C144.82721525 469.27239685 135.67483299 474.85586118 126.3125 480.3125 C125.37929932 480.85970703 125.37929932 480.85970703 124.42724609 481.41796875 C87.18754994 502.99900832 43.99824642 512.78711023 1.25 512.625 C0.25393738 512.62317719 -0.74212524 512.62135437 -1.76837158 512.61947632 C-16.28080287 512.57473255 -30.41059519 512.11719043 -44.6875 509.3125 C-45.58307617 509.15152832 -46.47865234 508.99055664 -47.40136719 508.82470703 C-91.1857452 500.90334146 -132.7452291 481.15139573 -166.11694336 451.69458008 C-167.24688138 450.70024164 -168.3840091 449.71405169 -169.52563477 448.7331543 C-182.55678068 437.49320912 -194.58284475 425.25318179 -204.6875 411.3125 C-205.17412109 410.65427246 -205.66074219 409.99604492 -206.16210938 409.31787109 C-213.48854743 399.3937511 -219.95925662 389.23550032 -225.6875 378.3125 C-226.03264648 377.65926758 -226.37779297 377.00603516 -226.73339844 376.33300781 C-243.98215302 343.47129604 -255.69585233 305.9695885 -255.890625 268.6171875 C-255.89763931 267.71523148 -255.90465363 266.81327545 -255.91188049 265.88398743 C-255.92930732 262.98510703 -255.93573387 260.08643087 -255.9375 257.1875 C-255.93817474 256.19763092 -255.93884949 255.20776184 -255.93954468 254.18789673 C-255.92380838 239.6780013 -255.4744755 225.59056021 -252.6875 211.3125 C-252.44604248 209.96696045 -252.44604248 209.96696045 -252.19970703 208.59423828 C-241.37712011 148.78411096 -207.31935543 91.27004171 -158.6875 54.3125 C-158.14722168 53.89581055 -157.60694336 53.47912109 -157.05029297 53.04980469 C-147.0552884 45.3665127 -136.59540964 38.62407032 -125.6875 32.3125 C-125.01025879 31.91820801 -124.33301758 31.52391602 -123.63525391 31.11767578 C-100.7166244 17.93538827 -75.14177437 9.32989082 -49.3125 4 C-48.60182373 3.85256348 -47.89114746 3.70512695 -47.15893555 3.55322266 C-31.51641634 0.56786213 -15.88080394 -0.0623098 0 0 Z " fill="#CD6799" transform="translate(255.6875,-0.3125)"/>
<path d="M0 0 C1.45108658 0.00273422 1.45108658 0.00273422 2.93148804 0.00552368 C17.26440977 0.05095174 31.21023917 0.55983928 45.3125 3.3125 C46.65803955 3.55395752 46.65803955 3.55395752 48.03076172 3.80029297 C107.84088904 14.62287989 165.35495829 48.68064457 202.3125 97.3125 C202.72918945 97.85277832 203.14587891 98.39305664 203.57519531 98.94970703 C211.2584873 108.9447116 218.00092968 119.40459036 224.3125 130.3125 C224.70679199 130.98974121 225.10108398 131.66698242 225.50732422 132.36474609 C238.68961173 155.2833756 247.29510918 180.85822563 252.625 206.6875 C252.77243652 207.39817627 252.91987305 208.10885254 253.07177734 208.84106445 C256.19007841 225.1801578 256.57859583 241.35740885 256.4375 257.9375 C256.42743714 260.02343314 256.41831721 262.10937105 256.41015625 264.1953125 C256.38843453 269.23449595 256.35409222 274.27344301 256.3125 279.3125 C254.98581299 279.20856934 254.98581299 279.20856934 253.63232422 279.10253906 C232.41060685 277.50272616 212.99504566 277.42750625 192.98120117 285.41845703 C190.11502199 286.52952926 187.63237349 287.30527122 184.546875 287.375 C179.36657033 284.91163834 177.46158149 277.41623891 175.3125 272.3125 C174.87164062 271.27222656 174.43078125 270.23195313 173.9765625 269.16015625 C168.88984151 255.14461651 170.13848083 240.08910525 175.3125 226.3125 C175.6425 225.6525 175.9725 224.9925 176.3125 224.3125 C176.5625 220.8125 176.5625 220.8125 176.3125 217.3125 C173.71581072 214.71581072 172.61862788 215.05527643 169.0078125 215.046875 C167.94949219 215.04429687 166.89117187 215.04171875 165.80078125 215.0390625 C164.69089844 215.04679688 163.58101563 215.05453125 162.4375 215.0625 C160.78427734 215.05089844 160.78427734 215.05089844 159.09765625 215.0390625 C158.03675781 215.04164063 156.97585938 215.04421875 155.8828125 215.046875 C154.91102051 215.04913086 153.93922852 215.05138672 152.93798828 215.05371094 C150.22221292 215.32139941 148.59812405 215.84761393 146.3125 217.3125 C145.10173992 219.25510623 145.10173992 219.25510623 144.3125 221.625 C143.98121094 222.52089844 143.64992188 223.41679687 143.30859375 224.33984375 C141.94393405 228.41241641 140.70715642 232.5164555 139.53515625 236.6484375 C136.08222224 246.99620779 131.26117909 256.55997071 126.0625 266.125 C125.73334595 266.73413239 125.40419189 267.34326477 125.06506348 267.97085571 C110.50238865 294.91587045 110.50238865 294.91587045 106.3125 296.3125 C105.68487545 295.08467138 105.06053935 293.85516164 104.4375 292.625 C104.08945312 291.94050781 103.74140625 291.25601562 103.3828125 290.55078125 C95.97664094 275.06269254 97.22741477 258.21731039 102.3125 242.3125 C102.68632812 241.42433594 103.06015625 240.53617188 103.4453125 239.62109375 C104.54692943 237.09942649 104.54692943 237.09942649 104.3125 233.3125 C99.62424521 230.60918637 95.22349613 230.98189727 89.9375 231 C89.00421875 230.98388672 88.0709375 230.96777344 87.109375 230.95117188 C81.85465643 230.9474504 77.65029472 231.01550742 73.3125 234.3125 C71.08113012 238.95334879 69.5788936 243.58729223 68.16015625 248.54296875 C65.22731291 258.29357825 61.00941267 267.39634607 56.75 276.625 C55.94024667 278.39741276 55.1315022 280.17028677 54.32373047 281.94360352 C53.11423608 284.59829727 51.90404569 287.25264644 50.69012451 289.90531921 C47.37185624 297.15794934 44.14563887 304.44796613 40.9375 311.75 C33.84141633 327.81614174 26.2051021 343.62383484 18.3125 359.3125 C17.3225 359.3125 16.3325 359.3125 15.3125 359.3125 C14.93690481 350.2907058 15.83623406 342.43681417 18.15625 333.73046875 C18.44479858 332.59144608 18.73334717 331.4524234 19.03063965 330.27888489 C19.94341041 326.68201958 20.87618913 323.09080293 21.8125 319.5 C22.74667028 315.89088111 23.67614196 312.28076849 24.59436035 308.66755676 C25.16327797 306.43123121 25.74149112 304.19724298 26.33044434 301.96611023 C27.78669943 296.26722461 28.8398438 291.20046367 28.3125 285.3125 C25.5039705 282.5039705 23.01156844 282.14716572 19.1875 282.0625 C15.40051227 282.14177741 15.40051227 282.14177741 12.3125 283.3125 C12.30839111 282.71824219 12.30428223 282.12398438 12.30004883 281.51171875 C12.26683011 278.77768555 12.19616064 276.04579856 12.125 273.3125 C12.11919922 272.37792969 12.11339844 271.44335938 12.10742188 270.48046875 C11.90168708 263.94267418 10.64360739 259.32586341 6.3125 254.3125 C2.56354938 251.07874259 -1.45459932 249.64518062 -6.45703125 249.92578125 C-19.57152459 252.19957256 -31.73726187 260.11180284 -40.85546875 269.55859375 C-42.6875 271.3125 -42.6875 271.3125 -44.6875 271.3125 C-44.96899902 271.90434082 -45.25049805 272.49618164 -45.54052734 273.10595703 C-49.88227401 281.45859781 -56.96599813 285.15010947 -65.0625 289.4375 C-66.25794459 290.08153209 -67.45276058 290.72673224 -68.64697266 291.37304688 C-71.10112992 292.69941208 -73.55927216 294.01800194 -76.01953125 295.33300781 C-79.58223386 297.24516753 -83.10461986 299.22190256 -86.625 301.2109375 C-88.77081768 302.41148632 -90.91665033 303.61200837 -93.0625 304.8125 C-94.05942871 305.38242676 -95.05635742 305.95235352 -96.08349609 306.53955078 C-97.01242676 307.05243652 -97.94135742 307.56532227 -98.8984375 308.09375 C-100.10959229 308.7753418 -100.10959229 308.7753418 -101.34521484 309.47070312 C-104.22593458 310.5060087 -105.79745455 310.22585333 -108.6875 309.3125 C-110.43359375 307.8515625 -110.43359375 307.8515625 -112.125 305.9375 C-115.56744982 302.31488458 -119.23729763 299.17275463 -123.1875 296.125 C-128.41307914 292.08920801 -133.57659728 287.99285658 -138.6875 283.8125 C-143.12568509 280.18276152 -147.5875376 276.59677531 -152.12988281 273.09814453 C-169.35306239 259.79282869 -186.53701613 244.80438611 -190.6875 222.3125 C-192.60448042 203.04769126 -186.65474945 186.13637804 -174.75 171 C-173.41126826 169.42425544 -172.05696476 167.86160938 -170.6875 166.3125 C-169.98882812 165.49394531 -169.29015625 164.67539063 -168.5703125 163.83203125 C-133.5362618 123.62391256 -75.13904441 94.22690792 -23.6875 82.3125 C-22.88747559 82.11785156 -22.08745117 81.92320313 -21.26318359 81.72265625 C-8.22787438 78.646655 4.60167904 77.92080006 17.9375 77.875 C18.70390808 77.8688266 19.47031616 77.8626532 20.25994873 77.85629272 C37.47220771 77.76700364 57.85320307 80.45777029 70.94140625 92.85546875 C78.7471089 101.91940407 79.21801754 111.42253632 78.57324219 122.93017578 C76.06523947 145.84505451 56.12470259 166.10106838 39.2421875 179.8046875 C24.12365544 191.43914203 6.44314301 199.64901048 -11.6875 205.3125 C-13.14201099 205.81746671 -14.59643412 206.32268654 -16.05078125 206.828125 C-37.52001722 213.96856286 -65.7310202 217.24318342 -86.6875 207.3125 C-91.84706087 204.57031208 -96.60320723 201.65118328 -100.625 197.375 C-101.305625 196.694375 -101.98625 196.01375 -102.6875 195.3125 C-104.0075 195.3125 -105.3275 195.3125 -106.6875 195.3125 C-105.79247366 204.26276338 -101.52796761 210.69263628 -94.6875 216.3125 C-87.49956093 221.68644814 -80.30208816 224.91012189 -71.6875 227.3125 C-70.97851562 227.52648437 -70.26953125 227.74046875 -69.5390625 227.9609375 C-51.07275242 233.1616534 -30.2418498 230.50386206 -11.6875 227.3125 C-10.9052002 227.17859863 -10.12290039 227.04469727 -9.31689453 226.90673828 C17.94594858 222.02675443 44.16504523 210.20391809 65.3125 192.3125 C66.12460937 191.63574219 66.93671875 190.95898438 67.7734375 190.26171875 C89.08366879 171.8757621 103.87037385 146.39781246 107.3125 118.3125 C108.31666187 100.97139698 104.97158741 86.15908677 93.63671875 72.75 C79.89846859 58.34215445 60.55121662 51.48650338 41.3125 48.3125 C40.10464844 48.08949219 38.89679688 47.86648437 37.65234375 47.63671875 C15.57006197 44.16495894 -6.91016021 45.83851591 -28.6875 50.3125 C-29.58339844 50.48910156 -30.47929687 50.66570313 -31.40234375 50.84765625 C-54.54348547 55.48963862 -76.27581272 64.59317402 -97.6875 74.3125 C-98.46561035 74.6616748 -99.2437207 75.01084961 -100.04541016 75.37060547 C-130.3564002 89.00556015 -159.7853388 107.02007887 -184.03125 129.8671875 C-186.6875 132.3125 -186.6875 132.3125 -189.32421875 134.40234375 C-191.48766336 136.15097914 -193.21020653 137.88155959 -195 140 C-196.83638068 142.15764814 -198.67225346 144.29603748 -200.59765625 146.375 C-216.83400428 163.93478793 -231.47320217 187.72008793 -230.95703125 212.30859375 C-230.17058284 228.54507307 -220.16530276 243.56410253 -209.6875 255.3125 C-208.66462891 256.51519531 -208.66462891 256.51519531 -207.62109375 257.7421875 C-203.3162313 262.74627418 -198.7745199 267.11710174 -193.6875 271.3125 C-193.14625488 271.76608887 -192.60500977 272.21967773 -192.04736328 272.68701172 C-181.96250622 281.13108925 -171.51985138 288.86080877 -160.6875 296.3125 C-135.06137769 313.94184971 -135.06137769 313.94184971 -126.6875 321.3125 C-129.36581444 324.18430775 -131.85382653 326.15812673 -135.328125 327.9765625 C-136.2260376 328.45367676 -137.1239502 328.93079102 -138.04907227 329.42236328 C-139.47884399 330.17235596 -139.47884399 330.17235596 -140.9375 330.9375 C-159.51340025 340.89273384 -176.29552349 351.82139168 -191.6875 366.3125 C-192.45835937 367.00730469 -193.22921875 367.70210938 -194.0234375 368.41796875 C-202.86776654 376.70386746 -208.76883078 386.89164168 -212.6875 398.3125 C-216.34473888 395.0506383 -218.61459521 391.31671073 -220.9375 387.0625 C-221.32663574 386.35794678 -221.71577148 385.65339355 -222.11669922 384.92749023 C-241.59144277 349.3791703 -255.67702472 309.58024105 -255.890625 268.6171875 C-255.89763931 267.71523148 -255.90465363 266.81327545 -255.91188049 265.88398743 C-255.92930732 262.98510703 -255.93573387 260.08643087 -255.9375 257.1875 C-255.93817474 256.19763092 -255.93884949 255.20776184 -255.93954468 254.18789673 C-255.92380838 239.6780013 -255.4744755 225.59056021 -252.6875 211.3125 C-252.44604248 209.96696045 -252.44604248 209.96696045 -252.19970703 208.59423828 C-241.37712011 148.78411096 -207.31935543 91.27004171 -158.6875 54.3125 C-158.14722168 53.89581055 -157.60694336 53.47912109 -157.05029297 53.04980469 C-147.0552884 45.3665127 -136.59540964 38.62407032 -125.6875 32.3125 C-125.01025879 31.91820801 -124.33301758 31.52391602 -123.63525391 31.11767578 C-100.7166244 17.93538827 -75.14177437 9.32989082 -49.3125 4 C-48.60182373 3.85256348 -47.89114746 3.70512695 -47.15893555 3.55322266 C-31.51641634 0.56786213 -15.88080394 -0.0623098 0 0 Z " fill="#F1F1F1" transform="translate(255.6875,-0.3125)"/>
<path d="M0 0 C0.66 0 1.32 0 2 0 C2.29132813 1.19753906 2.58265625 2.39507812 2.8828125 3.62890625 C7.02148481 20.43549711 7.02148481 20.43549711 14.23828125 36.09765625 C15.36273564 38.90590901 15.08287233 40.16690378 14 43 C12.14086731 45.26055359 10.02230759 47.20398015 7.875 49.1875 C-2.55041015 59.24896959 -13.1541352 72.91389328 -14.203125 87.90234375 C-14.40475402 95.90997337 -14.40475402 95.90997337 -11 103 C-6.74192505 105.53710299 -2.8228117 105.72834299 2 105 C17.91234929 100.52411993 34.42232938 91.97114243 42.9375 77.25 C45.82975789 71.7988292 46.19288813 67.0685197 46.1875 60.9375 C46.18814453 60.1854126 46.18878906 59.4333252 46.18945312 58.65844727 C46.13262295 52.61830382 45.42252814 46.88062971 44 41 C47.68826955 38.55481389 50.93615012 37.32321338 55.25 36.375 C56.30703125 36.13523437 57.3640625 35.89546875 58.453125 35.6484375 C65.81991112 34.30164621 73.07995412 33.80658261 80.5625 33.8125 C81.42004883 33.81185547 82.27759766 33.81121094 83.16113281 33.81054688 C91.21793301 33.87612202 99.04375656 34.75544795 107 36 C106.47703026 43.28386695 105.2285623 50.17577155 103.4375 57.25 C103.17646484 58.28560059 102.91542969 59.32120117 102.64648438 60.38818359 C99.82584308 71.20557306 96.08832175 81.60559385 92 92 C91.53078125 93.22460938 91.0615625 94.44921875 90.578125 95.7109375 C83.83237237 112.41659547 74.53780987 128.40859465 64 143 C63.27973633 144.00208496 63.27973633 144.00208496 62.54492188 145.02441406 C54.99087808 155.43896103 46.74929577 164.97697203 37.76953125 174.18359375 C36.12541354 175.87126425 34.49874897 177.5740178 32.875 179.28125 C26.30010237 186.11498481 19.24372295 192.03860208 11.66992188 197.73583984 C10.12495229 198.90540893 8.60053065 200.10198857 7.078125 201.30078125 C-1.48528475 207.95989685 -10.63766701 213.54336118 -20 219 C-20.93320068 219.54720703 -20.93320068 219.54720703 -21.88525391 220.10546875 C-59.12495006 241.68650832 -102.31425358 251.47461023 -145.0625 251.3125 C-146.05856262 251.31067719 -147.05462524 251.30885437 -148.08087158 251.30697632 C-162.59330287 251.26223255 -176.72309519 250.80469043 -191 248 C-191.89557617 247.83902832 -192.79115234 247.67805664 -193.71386719 247.51220703 C-237.64333831 239.56459156 -281.13117151 219.5680105 -314 189 C-314.33 188.34 -314.66 187.68 -315 187 C-313.741875 186.8040625 -312.48375 186.608125 -311.1875 186.40625 C-295.06137364 183.67528908 -281.91418927 178.16351358 -269 168 C-268.30648437 167.45859375 -267.61296875 166.9171875 -266.8984375 166.359375 C-249.98793843 152.38699353 -239.07376188 130.74721344 -237 109 C-236.77990509 104.91554639 -236.70665911 100.83999976 -236.6875 96.75 C-236.68194092 95.75629395 -236.67638184 94.76258789 -236.6706543 93.73876953 C-236.74875158 85.69541704 -237.25684239 77.44807905 -240.6875 70.0625 C-242 67 -242 67 -241.796875 64.95776367 C-240.79447376 62.49506284 -239.85505816 61.92014319 -237.5625 60.61328125 C-236.840625 60.19256348 -236.11875 59.7718457 -235.375 59.33837891 C-234.59125 58.89671387 -233.8075 58.45504883 -233 58 C-231.35395365 57.03551971 -229.70812561 56.07066674 -228.0625 55.10546875 C-226.37582557 54.13138158 -224.68831756 53.15873645 -223 52.1875 C-221.69482422 51.43436523 -221.69482422 51.43436523 -220.36328125 50.66601562 C-218.24292074 49.44273072 -216.12181992 48.22075117 -214 47 C-212.88992985 50.33021045 -213.11546856 51.2283982 -213.99609375 54.515625 C-220.54628515 80.51162522 -220.39579568 105.66485398 -206.5625 129.25 C-203.56461728 133.64558839 -201.3676225 135.83701512 -196 137 C-189.74902927 137.61140882 -184.27023119 137.799469 -179 134 C-172.26704007 127.70614615 -168.88029951 119.20590715 -165 111 C-164.16301144 109.24467195 -163.3257641 107.48946727 -162.48828125 105.734375 C-160.31190606 101.16259173 -158.15213102 96.58324199 -156 92 C-155.67 92 -155.34 92 -155 92 C-154.97812622 92.92111572 -154.97812622 92.92111572 -154.95581055 93.86083984 C-154.88038055 96.69945985 -154.78404224 99.53702258 -154.6875 102.375 C-154.66494141 103.34050781 -154.64238281 104.30601562 -154.61914062 105.30078125 C-154.32876654 113.16727906 -153.62410548 120.86387394 -148.4375 127.0625 C-145.18797693 129.64545423 -143.80739171 130.17821728 -139.75 129.8125 C-132.52481665 128.86607023 -128.51229517 124.81892486 -123.921875 119.50854492 C-120.21761775 114.67352927 -117.43965052 109.28938889 -114.5625 103.9375 C-113.89475988 102.71111654 -113.22629642 101.48512668 -112.55712891 100.25952148 C-111.25940846 97.87880062 -109.96862388 95.49472046 -108.68115234 93.10839844 C-107.37303484 90.68972982 -106.05067873 88.28177652 -104.70703125 85.8828125 C-94.05041818 66.56912143 -85.42349347 46.11047639 -77.13793945 25.68945312 C-76.87489014 25.04795822 -76.61184082 24.40646332 -76.34082031 23.74552917 C-75.62691667 22.00402521 -74.92026807 20.25955218 -74.21411133 18.51489258 C-73 16 -73 16 -71 15 C-70.70867187 16.19753906 -70.41734375 17.39507812 -70.1171875 18.62890625 C-67.09094447 30.7626759 -63.66299332 42.49807585 -57.5625 53.5 C-55.65986017 57.76191323 -55.90512932 59.5015096 -57 64 C-58.5346808 66.39847862 -59.99239473 68.41262935 -61.8125 70.5625 C-62.30314941 71.16473389 -62.79379883 71.76696777 -63.29931641 72.38745117 C-67.22454093 77.17299035 -71.2907975 81.8408807 -75.35205078 86.51098633 C-79.47459049 91.2902671 -83.35698717 96.23455787 -87.1875 101.25 C-87.75259277 101.98968018 -88.31768555 102.72936035 -88.89990234 103.49145508 C-93.57853439 109.5089622 -93.57853439 109.5089622 -94 117 C-91.20494823 120.7303822 -89.72190518 121.8845812 -85.06640625 122.62890625 C-83.56497906 122.63959851 -82.06301928 122.61578977 -80.5625 122.5625 C-79.76481201 122.54445313 -78.96712402 122.52640625 -78.14526367 122.5078125 C-62.88859343 121.89772872 -46.7108109 115.45103778 -35.57421875 104.7734375 C-32.88140638 101.73984738 -30.81009306 98.62704253 -29 95 C-28.52046875 94.05447266 -28.52046875 94.05447266 -28.03125 93.08984375 C-24.1501183 83.76434675 -24.67906994 71.77051388 -28 62.375 C-28.37125 61.49585938 -28.7425 60.61671875 -29.125 59.7109375 C-30.47590089 55.52555705 -31.01014205 52.04738547 -28.99902344 47.97119141 C-27.52999323 45.6316838 -25.97231226 43.37886362 -24.375 41.125 C-17.01293295 30.31228543 -10.68440507 19.01922652 -4.41943359 7.54516602 C-3.95102051 6.70526123 -3.48260742 5.86535645 -3 5 C-2.48646973 4.06663818 -1.97293945 3.13327637 -1.44384766 2.17163086 C-0.96737793 1.45499268 -0.4909082 0.73835449 0 0 Z " fill="#F1F1F1" transform="translate(402,261)"/>
<path d="M0 0 C4.78394677 16.432234 0.95888746 35.92277759 -6.984375 50.60546875 C-14.79903591 63.76620582 -25.54751322 72.97646408 -39 80 C-39.66515625 80.36351562 -40.3303125 80.72703125 -41.015625 81.1015625 C-47.30955077 84.02960623 -55.24721929 83.96036187 -62 83 C-65.10484155 80.98775894 -66.65884133 79.68231734 -68.3125 76.375 C-70.74604143 64.42852388 -67.14503701 54.59913531 -60.7578125 44.47265625 C-48.50715823 27.24006925 -30.11194569 15.4498148 -12.625 4.125 C-11.82271973 3.59487305 -11.02043945 3.06474609 -10.19384766 2.51855469 C-9.44151855 2.04063477 -8.68918945 1.56271484 -7.9140625 1.0703125 C-7.2535791 0.64508301 -6.5930957 0.21985352 -5.91259766 -0.21826172 C-3.5417411 -1.1873047 -2.3691024 -0.84945007 0 0 Z " fill="#F1F0F1" transform="translate(142,338)"/>
<path d="M0 0 C2 2 2 2 2.14794922 4.27539062 C1.47576379 13.14763678 -0.97086817 21.154078 -3.875 29.5 C-4.36983011 30.94969199 -4.86437294 32.39948206 -5.35864258 33.84936523 C-22.44599357 83.59034409 -22.44599357 83.59034409 -33 96 C-35.3125 95.9375 -35.3125 95.9375 -38 95 C-41.00553032 89.84766231 -41.70067204 84.88971779 -42 79 C-42.09667969 77.50533203 -42.09667969 77.50533203 -42.1953125 75.98046875 C-43.04601259 51.62208952 -33.13135428 27.80626022 -17.95703125 9.0859375 C-13.24224829 4.06059998 -7.28308309 -1.01153932 0 0 Z " fill="#F1EFF0" transform="translate(250,272)"/>
<path d="M0 0 C2.65792786 5.31585572 1.7895114 13.36947546 0.12890625 18.90234375 C-3.7895834 27.24037582 -9.74481412 33.03116064 -18 37 C-18.99 37 -19.98 37 -21 37 C-22.30979813 25.47377648 -14.625083 14.79022754 -8 6 C-2.88764045 0 -2.88764045 0 0 0 Z " fill="#F0EDEF" transform="translate(424,316)"/>
<path d="M0 0 C0.33 0 0.66 0 1 0 C1.68202438 8.18429259 -1.41968017 13.34253926 -6.5625 19.5625 C-11.00381671 24.37114365 -16.15147775 28.06156636 -22 31 C-22.99 31 -23.98 31 -25 31 C-23.31653709 26.69664793 -20.15294121 23.82270251 -17 20.5625 C-11.95576281 15.2602708 -7.33340203 9.79746628 -2.984375 3.91235352 C-2.0080095 2.59438379 -1.00670208 1.29494584 0 0 Z " fill="#F0EAED" transform="translate(351,340)"/>
</svg>
