<?xml version="1.0" encoding="UTF-8"?>
<svg version="1.1" xmlns="http://www.w3.org/2000/svg" width="48" height="48">
<path d="M0 0 C-0.66 2.31 -1.32 4.62 -2 7 C-0.948125 6.67 0.10375 6.34 1.1875 6 C4.38873357 5.16033218 6.7411008 4.80249096 10 5 C9.45952711 9.57854724 8.26452817 12.81686968 5.98046875 16.80859375 C5.37009766 17.88560547 4.75972656 18.96261719 4.13085938 20.07226562 C3.48955078 21.18279297 2.84824219 22.29332031 2.1875 23.4375 C1.55779297 24.54416016 0.92808594 25.65082031 0.27929688 26.79101562 C-1.47208245 29.86557766 -3.23437167 32.93360556 -5 36 C-5.8170667 37.42800773 -6.63361089 38.8563148 -7.44921875 40.28515625 C-7.96097656 41.18105469 -8.47273438 42.07695313 -9 43 C-10.32 43 -11.64 43 -13 43 C-13.42821045 42.22398438 -13.8564209 41.44796875 -14.29760742 40.6484375 C-15.90798434 37.7325788 -17.52035642 34.81784149 -19.1340332 31.90380859 C-19.82817842 30.6493603 -20.52155678 29.39448732 -21.21411133 28.13916016 C-22.21748169 26.32077776 -23.2231904 24.5037203 -24.23046875 22.6875 C-24.55610809 22.09976807 -24.88174744 21.51203613 -25.21725464 20.90649414 C-27.04198631 17.63751783 -28.95036283 14.45240394 -30.98828125 11.3125 C-33 8 -33 8 -33 5 C-31.27054347 5.14235457 -29.54144346 5.28904382 -27.8125 5.4375 C-26.36810547 5.55931641 -26.36810547 5.55931641 -24.89453125 5.68359375 C-22.21350398 5.97666151 -19.6337014 6.42703754 -17 7 C-17 5.35 -17 3.7 -17 2 C-11.23918159 0.7017874 -5.91260345 -0.25706972 0 0 Z " fill="#7370D5" transform="translate(35,3)"/>
<path d="M0 0 C-0.99 3.3 -1.98 6.6 -3 10 C-1.35 10 0.3 10 2 10 C0.69042205 13.37913187 -0.75399367 16.62652588 -2.3828125 19.86328125 C-2.82753906 20.74951172 -3.27226562 21.63574219 -3.73046875 22.54882812 C-4.19066406 23.46083984 -4.65085937 24.37285156 -5.125 25.3125 C-5.59292969 26.24384766 -6.06085937 27.17519531 -6.54296875 28.13476562 C-7.69350346 30.42409489 -8.84590035 32.71246641 -10 35 C-10.33 35 -10.66 35 -11 35 C-10.67 31.7 -10.34 28.4 -10 25 C-10.99 25 -11.98 25 -13 25 C-12.67 22.69 -12.34 20.38 -12 18 C-13.65 18.33 -15.3 18.66 -17 19 C-17 13.39 -17 7.78 -17 2 C-11.17803161 0.72395213 -5.95265252 -0.25881098 0 0 Z " fill="#F6BF06" transform="translate(35,3)"/>
</svg>
